# xmcd
#
# Track frame offsets:
#	150
#	12053
#	24612
#	42888
#	56706
#	76379
#	86604
#	100551
#	122684
#	134627
#	157463
#
# Disc length: 2423 seconds
#
# Revision: 1
# Processed by: cddbd v1.5.2PL0 Copyright (c) Steve Scherf et al.
# Submitted via: EZCDAudioConverter 8.5.0.1
#
DISCID=8b09750b
DTITLE=Townes Van Zandt - Our Mother The Mountain
DYEAR=1969
DGENRE=Country
TTITLE0=Be Here To Love Me
TTITLE1=Kathleen
TTITLE2=She Came And She Touched Me
TTITLE3=Like A Summer Thursday
TTITLE4=Our Mother The Mountain
TTITLE5=Second Lovers Song
TTITLE6=St. John The Gambler
TTITLE7=Tecumseh Valley
TTITLE8=Snake Mountain Blues
TTITLE9=My Proud Mountains
TTITLE10=Why She's Acting This Way
EXTD=
EXTT0=
EXTT1=
EXTT2=
EXTT3=
EXTT4=
EXTT5=
EXTT6=
EXTT7=
EXTT8=
EXTT9=
EXTT10=
PLAYORDER=
